<svg xmlns="http://www.w3.org/2000/svg" width="1024" height="768" viewBox="0 0 1024 768"><clipPath id="a"><path d="M0 0h1024v768H0zm0 0h1280v960H0z" fill-rule="evenodd"/></clipPath><text x="-274.821" y="15.223" style="font:152.22984px Arial,Helvetica,sans-serif" dy="60.17" fill="#30588c" transform="translate(548 458)">Wstrząs</text><text x="-276.413" y="12.178" style="font:121.783872px Arial,Helvetica,sans-serif" dy="48.136" fill="#61a2ca" transform="translate(500 280)">Wrodzona</text><text x="-160.728" y="6.089" style="font:60.891936px Arial,Helvetica,sans-serif" dy="24.068" fill="#61a2ca" transform="translate(510 384)">Wnętrostwo</text><text x="-68.813" y="6.089" style="font:60.891936px Arial,Helvetica,sans-serif" dy="24.068" fill="#30588c" transform="translate(538 232)">Wole</text><text x="-86.266" y="6.089" style="font:60.891936px Arial,Helvetica,sans-serif" dy="24.068" fill="#03318c" transform="translate(508 548)">miękki</text><text x="-91.075" y="3.045" style="font:30.445968px Arial,Helvetica,sans-serif" dy="12.034" fill="#021f59" transform="translate(502 354)">Wrzodziejące</text><text x="-83.755" y="3.045" style="font:30.445968px Arial,Helvetica,sans-serif" dy="12.034" fill="#03318c" transform="translate(608 422)">dwunastnicy</text><text x="-51.308" y="3.045" style="font:30.445968px Arial,Helvetica,sans-serif" dy="12.034" fill="#021f59" transform="translate(646 346)">Wrzody</text><text x="-37.233" y="3.045" style="font:30.445968px Arial,Helvetica,sans-serif" dy="12.034" fill="#03318c" transform="translate(440 254)">stopa</text><text x="-48.224" y="3.045" style="font:30.445968px Arial,Helvetica,sans-serif" dy="12.034" fill="#30588c" transform="translate(360 350)">końsko</text><text x="-64.299" y="3.045" style="font:30.445968px Arial,Helvetica,sans-serif" dy="12.034" fill="#03318c" transform="translate(404 230)">szpotawa</text><text x="-31.302" y="3.045" style="font:30.445968px Arial,Helvetica,sans-serif" dy="12.034" fill="#03318c" transform="translate(486 198)">jelita</text><text x="-52.46" y="3.045" style="font:30.445968px Arial,Helvetica,sans-serif" dy="12.034" fill="#03318c" transform="translate(660 242)">żołądka</text><text x="-86.281" y="3.045" style="font:30.445968px Arial,Helvetica,sans-serif" dy="12.034" fill="#32628c" transform="translate(510 174)">Współczulne</text><text x="-82.922" y="3.045" style="font:30.445968px Arial,Helvetica,sans-serif" dy="12.034" fill="#03318c" transform="translate(518 590)">kardiogenny</text><text x="-45.682" y="3.045" style="font:30.445968px Arial,Helvetica,sans-serif" dy="12.034" fill="#30588c" transform="translate(374 530)">mózgu</text><text x="-56.674" y="3.045" style="font:30.445968px Arial,Helvetica,sans-serif" dy="12.034" fill="#03318c" transform="translate(652 530)">urazowy</text><text x="-95.593" y="3.045" style="font:30.445968px Arial,Helvetica,sans-serif" dy="12.034" fill="#30588c" transform="translate(712 218)">anafilaktyczny</text><text x="-43.698" y="3.045" style="font:30.445968px Arial,Helvetica,sans-serif" dy="12.034" fill="#61a2ca" transform="translate(460 430)">Wrzód</text><text x="-56.674" y="3.045" style="font:30.445968px Arial,Helvetica,sans-serif" dy="12.034" fill="#32628c" transform="translate(540 614)">przełyku</text><text x="-24.539" y="3.045" style="font:30.445968px Arial,Helvetica,sans-serif" dy="12.034" fill="#30588c" transform="translate(588 474)">oka</text><text x="-55.856" y="3.045" style="font:30.445968px Arial,Helvetica,sans-serif" dy="12.034" fill="#32628c" transform="translate(512 150)">grubego</text><text x="-82.632" y="3.045" style="font:30.445968px Arial,Helvetica,sans-serif" dy="12.034" fill="#30588c" transform="translate(322 214)">Wodogłowie</text><text x="-85.167" y="3.045" style="font:30.445968px Arial,Helvetica,sans-serif" dy="12.034" fill="#32628c" transform="translate(508 638)">Wodonercze</text><text x="-60.07" y="3.045" style="font:30.445968px Arial,Helvetica,sans-serif" dy="12.034" fill="#30588c" transform="translate(324 550)">guzkowe</text><text x="-33.844" y="3.045" style="font:30.445968px Arial,Helvetica,sans-serif" dy="12.034" fill="#03318c" transform="translate(566 198)">jądra</text><text x="-61.742" y="3.045" style="font:30.445968px Arial,Helvetica,sans-serif" dy="12.034" fill="#03318c" transform="translate(482 126)">Włośnica</text><text x="-61.742" y="3.045" style="font:30.445968px Arial,Helvetica,sans-serif" dy="12.034" fill="#021f59" transform="translate(722 562)">Włókniak</text><text x="-58.94" y="3.045" style="font:30.445968px Arial,Helvetica,sans-serif" dy="12.034" fill="#03318c" transform="translate(542 662)">Wodniak</text><text x="-73.618" y="3.045" style="font:30.445968px Arial,Helvetica,sans-serif" dy="12.034" fill="#61a2ca" transform="translate(506 102)">nadczynne</text><text x="-42.301" y="3.045" style="font:30.445968px Arial,Helvetica,sans-serif" dy="12.034" fill="#61a2ca" transform="translate(702 194)">proste</text><text x="-34.676" y="3.045" style="font:30.445968px Arial,Helvetica,sans-serif" dy="12.034" fill="#32628c" transform="translate(726 430)">kości</text><text x="-55.812" y="3.045" style="font:30.445968px Arial,Helvetica,sans-serif" dy="12.034" fill="#61a2ca" transform="translate(304 190)">tarczycy</text><text x="-65.963" y="3.045" style="font:30.445968px Arial,Helvetica,sans-serif" dy="12.034" fill="#32628c" transform="translate(778 254)">łamliwość</text><text x="-68.535" y="3.045" style="font:30.445968px Arial,Helvetica,sans-serif" dy="12.034" fill="#61a2ca" transform="translate(536 686)">paznokieć</text><text x="-77.542" y="3.045" style="font:30.445968px Arial,Helvetica,sans-serif" dy="12.034" fill="#30588c" transform="translate(504 78)">Woskowina</text><text x="-33.004" y="3.045" style="font:30.445968px Arial,Helvetica,sans-serif" dy="12.034" fill="#32628c" transform="translate(700 406)">uchu</text><text x="-74.993" y="3.045" style="font:30.445968px Arial,Helvetica,sans-serif" dy="12.034" fill="#021f59" transform="translate(514 710)">Wrastający</text><text x="-82.068" y="3.045" style="font:30.445968px Arial,Helvetica,sans-serif" dy="12.034" fill="#03318c" transform="translate(510 54)">niedrożność</text></svg>